<svg width="17" height="17" viewBox="0 0 17 17" fill="none" xmlns="http://www.w3.org/2000/svg">
<circle cx="8.66868" cy="8.2656" r="8.2152" fill="#9FC7FF" stroke="#D7D7D7" stroke-width="0.1008"/>
<circle cx="8.2656" cy="8.2656" r="8.2152" fill="#CCE1FF" stroke="#D7D7D7" stroke-width="0.1008"/>
<mask id="mask0_101_25906" style="mask-type:alpha" maskUnits="userSpaceOnUse" x="1" y="1" width="15" height="15">
<circle cx="8.26553" cy="8.26456" r="6.804" fill="#A0C7FF" stroke="#D7D7D7" stroke-width="0.1008"/>
</mask>
<g mask="url(#mask0_101_25906)">
<circle cx="8.26553" cy="8.26456" r="6.804" fill="#A0C7FF" stroke="#D7D7D7" stroke-width="0.1008"/>
<g filter="url(#filter0_f_101_25906)">
<path d="M4.53586 10.986C1.63282 6.71209 5.54386 2.61961 7.86226 1.10761L7.05585 0.0996094L1.51185 4.53481L-1.31055 8.97001L6.14865 16.3284C6.82066 16.3284 7.4389 15.2599 4.53586 10.986Z" fill="#91BDFB"/>
</g>
</g>
<mask id="path-6-outside-1_101_25906" maskUnits="userSpaceOnUse" x="5.04004" y="3.40234" width="6" height="11" fill="black">
<rect fill="white" x="5.04004" y="3.40234" width="6" height="11"/>
<path d="M10.5647 10.4001C10.5647 10.7355 10.4808 11.057 10.3131 11.3645C10.1454 11.665 9.89726 11.9166 9.56878 12.1193C9.2473 12.322 8.85942 12.4373 8.40515 12.4652V13.3144H7.83905V12.4652C7.20307 12.4093 6.6859 12.2067 6.28754 11.8572C5.88918 11.5008 5.6865 11.05 5.67951 10.5049H6.69638C6.72434 10.7984 6.83267 11.0535 7.02136 11.2702C7.21705 11.4868 7.48961 11.6231 7.83905 11.679V9.0582C7.3708 8.93939 6.99341 8.81709 6.70687 8.69129C6.42033 8.56549 6.17572 8.36981 5.97304 8.10423C5.77037 7.83866 5.66903 7.48223 5.66903 7.03495C5.66903 6.46885 5.86472 6.0006 6.25609 5.6302C6.65445 5.25979 7.18211 5.05362 7.83905 5.01169V4.14158H8.40515V5.01169C8.99919 5.06061 9.47793 5.2528 9.84135 5.58826C10.2048 5.91674 10.4144 6.34655 10.4703 6.8777H9.45347C9.41852 6.63309 9.3102 6.41294 9.12849 6.21726C8.94678 6.01458 8.70566 5.88179 8.40515 5.81889V8.37679C8.86641 8.4956 9.24031 8.61791 9.52685 8.74371C9.82038 8.86252 10.065 9.05471 10.2607 9.32028C10.4633 9.58586 10.5647 9.94578 10.5647 10.4001ZM6.64397 6.98253C6.64397 7.32498 6.74531 7.58706 6.94798 7.76877C7.15066 7.95048 7.44768 8.10074 7.83905 8.21955V5.79793C7.47564 5.83287 7.1856 5.95168 6.96895 6.15436C6.7523 6.35004 6.64397 6.6261 6.64397 6.98253ZM8.40515 11.6895C8.78254 11.6476 9.07607 11.5113 9.28574 11.2806C9.50239 11.05 9.61071 10.774 9.61071 10.4525C9.61071 10.11 9.50588 9.84794 9.29622 9.66623C9.08655 9.47753 8.78953 9.32727 8.40515 9.21545V11.6895Z"/>
</mask>
<path d="M10.5647 10.4001C10.5647 10.7355 10.4808 11.057 10.3131 11.3645C10.1454 11.665 9.89726 11.9166 9.56878 12.1193C9.2473 12.322 8.85942 12.4373 8.40515 12.4652V13.3144H7.83905V12.4652C7.20307 12.4093 6.6859 12.2067 6.28754 11.8572C5.88918 11.5008 5.6865 11.05 5.67951 10.5049H6.69638C6.72434 10.7984 6.83267 11.0535 7.02136 11.2702C7.21705 11.4868 7.48961 11.6231 7.83905 11.679V9.0582C7.3708 8.93939 6.99341 8.81709 6.70687 8.69129C6.42033 8.56549 6.17572 8.36981 5.97304 8.10423C5.77037 7.83866 5.66903 7.48223 5.66903 7.03495C5.66903 6.46885 5.86472 6.0006 6.25609 5.6302C6.65445 5.25979 7.18211 5.05362 7.83905 5.01169V4.14158H8.40515V5.01169C8.99919 5.06061 9.47793 5.2528 9.84135 5.58826C10.2048 5.91674 10.4144 6.34655 10.4703 6.8777H9.45347C9.41852 6.63309 9.3102 6.41294 9.12849 6.21726C8.94678 6.01458 8.70566 5.88179 8.40515 5.81889V8.37679C8.86641 8.4956 9.24031 8.61791 9.52685 8.74371C9.82038 8.86252 10.065 9.05471 10.2607 9.32028C10.4633 9.58586 10.5647 9.94578 10.5647 10.4001ZM6.64397 6.98253C6.64397 7.32498 6.74531 7.58706 6.94798 7.76877C7.15066 7.95048 7.44768 8.10074 7.83905 8.21955V5.79793C7.47564 5.83287 7.1856 5.95168 6.96895 6.15436C6.7523 6.35004 6.64397 6.6261 6.64397 6.98253ZM8.40515 11.6895C8.78254 11.6476 9.07607 11.5113 9.28574 11.2806C9.50239 11.05 9.61071 10.774 9.61071 10.4525C9.61071 10.11 9.50588 9.84794 9.29622 9.66623C9.08655 9.47753 8.78953 9.32727 8.40515 9.21545V11.6895Z" fill="#E6F0FF"/>
<path d="M10.3131 11.3645L10.4011 11.4136L10.4016 11.4128L10.3131 11.3645ZM9.56878 12.1193L9.51585 12.0335L9.51502 12.034L9.56878 12.1193ZM8.40515 12.4652L8.39896 12.3646L8.30435 12.3705V12.4652H8.40515ZM8.40515 13.3144V13.4152H8.50595V13.3144H8.40515ZM7.83905 13.3144H7.73825V13.4152H7.83905V13.3144ZM7.83905 12.4652H7.93985V12.3729L7.84788 12.3648L7.83905 12.4652ZM6.28754 11.8572L6.22032 11.9323L6.22107 11.933L6.28754 11.8572ZM5.67951 10.5049V10.4041H5.57741L5.57872 10.5062L5.67951 10.5049ZM6.69638 10.5049L6.79673 10.4953L6.78804 10.4041H6.69638V10.5049ZM7.02136 11.2702L6.94534 11.3364L6.94656 11.3377L7.02136 11.2702ZM7.83905 11.679L7.82313 11.7785L7.93985 11.7972V11.679H7.83905ZM7.83905 9.0582H7.93985V8.97978L7.86384 8.9605L7.83905 9.0582ZM6.70687 8.69129L6.66635 8.78359L6.70687 8.69129ZM5.97304 8.10423L6.05317 8.04308L5.97304 8.10423ZM6.25609 5.6302L6.18745 5.55637L6.1868 5.55699L6.25609 5.6302ZM7.83905 5.01169L7.84547 5.11228L7.93985 5.10626V5.01169H7.83905ZM7.83905 4.14158V4.04078H7.73825V4.14158H7.83905ZM8.40515 4.14158H8.50595V4.04078H8.40515V4.14158ZM8.40515 5.01169H8.30435V5.10453L8.39687 5.11215L8.40515 5.01169ZM9.84134 5.58826L9.77297 5.66234L9.77375 5.66304L9.84134 5.58826ZM10.4703 6.8777V6.9785H10.5823L10.5706 6.86715L10.4703 6.8777ZM9.45347 6.8777L9.35368 6.89195L9.36604 6.9785H9.45347V6.8777ZM9.12849 6.21726L9.05342 6.28455L9.05462 6.28584L9.12849 6.21726ZM8.40515 5.81889L8.4258 5.72023L8.30435 5.69481V5.81889H8.40515ZM8.40515 8.37679H8.30435V8.45492L8.38 8.47441L8.40515 8.37679ZM9.52685 8.74371L9.48631 8.83604L9.48903 8.83714L9.52685 8.74371ZM10.2607 9.32028L10.1795 9.38009L10.1805 9.38144L10.2607 9.32028ZM6.94798 7.76877L7.01527 7.69372H7.01527L6.94798 7.76877ZM7.83905 8.21955L7.80977 8.316L7.93985 8.35549V8.21955H7.83905ZM7.83905 5.79793H7.93985V5.68697L7.82941 5.69759L7.83905 5.79793ZM6.96895 6.15436L7.03652 6.22917L7.03781 6.22797L6.96895 6.15436ZM8.40515 11.6895H8.30435V11.8021L8.41628 11.7897L8.40515 11.6895ZM9.28574 11.2806L9.21226 11.2116L9.21115 11.2128L9.28574 11.2806ZM9.29622 9.66623L9.22878 9.74117L9.2302 9.7424L9.29622 9.66623ZM8.40515 9.21545L8.4333 9.11866L8.30435 9.08115V9.21545H8.40515ZM10.4639 10.4001C10.4639 10.7179 10.3846 11.0229 10.2246 11.3162L10.4016 11.4128C10.577 11.0911 10.6655 10.7531 10.6655 10.4001H10.4639ZM10.2251 11.3154C10.0667 11.5991 9.8315 11.8387 9.51585 12.0335L9.62171 12.2051C9.96301 11.9945 10.224 11.7309 10.4011 11.4136L10.2251 11.3154ZM9.51502 12.034C9.21043 12.2261 8.83966 12.3375 8.39896 12.3646L8.41134 12.5659C8.87917 12.5371 9.28416 12.4179 9.62254 12.2046L9.51502 12.034ZM8.30435 12.4652V13.3144H8.50595V12.4652H8.30435ZM8.40515 13.2136H7.83905V13.4152H8.40515V13.2136ZM7.93985 13.3144V12.4652H7.73825V13.3144H7.93985ZM7.84788 12.3648C7.22877 12.3104 6.73319 12.114 6.35401 11.7814L6.22107 11.933C6.63862 12.2993 7.17738 12.5083 7.83023 12.5657L7.84788 12.3648ZM6.35475 11.7821C5.9779 11.4449 5.78694 11.0211 5.78031 10.5036L5.57872 10.5062C5.58607 11.0789 5.80046 11.5567 6.22033 11.9323L6.35475 11.7821ZM5.67951 10.6057H6.69638V10.4041H5.67951V10.6057ZM6.59604 10.5144C6.62593 10.8283 6.74244 11.1034 6.94535 11.3364L7.09738 11.204C6.92289 11.0036 6.82275 10.7685 6.79673 10.4953L6.59604 10.5144ZM6.94656 11.3377C7.16072 11.5748 7.45597 11.7198 7.82313 11.7785L7.85498 11.5795C7.52326 11.5264 7.27338 11.3988 7.09617 11.2026L6.94656 11.3377ZM7.93985 11.679V9.0582H7.73825V11.679H7.93985ZM7.86384 8.9605C7.39842 8.84241 7.02689 8.7217 6.74739 8.59899L6.66635 8.78359C6.95992 8.91248 7.34319 9.03638 7.81426 9.15591L7.86384 8.9605ZM6.74739 8.59899C6.47753 8.48052 6.24622 8.29603 6.05317 8.04308L5.89291 8.16538C6.10522 8.44358 6.36313 8.65047 6.66635 8.78359L6.74739 8.59899ZM6.05317 8.04308C5.86781 7.80019 5.76983 7.46757 5.76983 7.03495H5.56823C5.56823 7.49689 5.67293 7.87713 5.89291 8.16538L6.05317 8.04308ZM5.76983 7.03495C5.76983 6.49498 5.95523 6.05372 6.32538 5.70341L6.1868 5.55699C5.7742 5.94748 5.56823 6.44273 5.56823 7.03495H5.76983ZM6.32473 5.70402C6.70269 5.35258 7.20668 5.15306 7.84547 5.11228L7.83263 4.91109C7.15754 4.95418 6.60622 5.167 6.18745 5.55638L6.32473 5.70402ZM7.93985 5.01169V4.14158H7.73825V5.01169H7.93985ZM7.83905 4.24238H8.40515V4.04078H7.83905V4.24238ZM8.30435 4.14158V5.01169H8.50595V4.14158H8.30435ZM8.39687 5.11215C8.97325 5.15961 9.42927 5.34507 9.77297 5.66233L9.90972 5.51419C9.52658 5.16053 9.02514 4.9616 8.41342 4.91123L8.39687 5.11215ZM9.77375 5.66304C10.117 5.9733 10.3165 6.37939 10.3701 6.88825L10.5706 6.86715C10.5123 6.31371 10.2925 5.86017 9.90894 5.51348L9.77375 5.66304ZM10.4703 6.7769H9.45347V6.9785H10.4703V6.7769ZM9.55325 6.86344C9.51517 6.59685 9.39685 6.35812 9.20235 6.14867L9.05462 6.28584C9.22354 6.46776 9.32188 6.66933 9.35368 6.89195L9.55325 6.86344ZM9.20354 6.14997C9.0057 5.92929 8.74452 5.78694 8.4258 5.72023L8.3845 5.91756C8.66681 5.97665 8.88786 6.09987 9.05343 6.28454L9.20354 6.14997ZM8.30435 5.81889V8.37679H8.50595V5.81889H8.30435ZM8.38 8.47441C8.83842 8.59249 9.20662 8.7132 9.48633 8.836L9.56737 8.65141C9.274 8.52261 8.8944 8.39872 8.43029 8.27918L8.38 8.47441ZM9.48903 8.83714C9.76454 8.94866 9.99441 9.12885 10.1795 9.38008L10.3418 9.26049C10.1356 8.98057 9.87621 8.77637 9.56467 8.65027L9.48903 8.83714ZM10.1805 9.38144C10.3657 9.62408 10.4639 9.96002 10.4639 10.4001H10.6655C10.6655 9.93154 10.561 9.54763 10.3408 9.25913L10.1805 9.38144ZM6.54317 6.98253C6.54317 7.34569 6.65143 7.63827 6.88069 7.84382L7.01527 7.69372C6.83919 7.53585 6.74477 7.30427 6.74477 6.98253H6.54317ZM6.88069 7.84382C7.09842 8.03903 7.41077 8.19487 7.80977 8.316L7.86833 8.12309C7.4846 8.0066 7.20289 7.86193 7.01527 7.69372L6.88069 7.84382ZM7.93985 8.21955V5.79793H7.73825V8.21955H7.93985ZM7.82941 5.69759C7.44907 5.73416 7.13644 5.85964 6.90009 6.08074L7.03781 6.22797C7.23476 6.04373 7.5022 5.93158 7.8487 5.89826L7.82941 5.69759ZM6.90138 6.07955C6.65899 6.29849 6.54317 6.6044 6.54317 6.98253H6.74477C6.74477 6.6478 6.8456 6.4016 7.03651 6.22916L6.90138 6.07955ZM8.41628 11.7897C8.8125 11.7456 9.13074 11.601 9.36032 11.3484L9.21115 11.2128C9.0214 11.4216 8.75259 11.5495 8.39401 11.5893L8.41628 11.7897ZM9.3592 11.3497C9.59372 11.1 9.71151 10.7991 9.71151 10.4525H9.50991C9.50991 10.7488 9.41105 11 9.21227 11.2116L9.3592 11.3497ZM9.71151 10.4525C9.71151 10.0882 9.59905 9.7953 9.36224 9.59005L9.2302 9.7424C9.41271 9.90058 9.50991 10.1318 9.50991 10.4525H9.71151ZM9.36365 9.5913C9.139 9.38912 8.82656 9.23307 8.4333 9.11866L8.37699 9.31224C8.7525 9.42148 9.03411 9.56594 9.22879 9.74115L9.36365 9.5913ZM8.30435 9.21545V11.6895H8.50595V9.21545H8.30435Z" fill="#D7D7D7" mask="url(#path-6-outside-1_101_25906)"/>
<defs>
<filter id="filter0_f_101_25906" x="-3.32655" y="-1.91639" width="13.2049" height="20.2605" filterUnits="userSpaceOnUse" color-interpolation-filters="sRGB">
<feFlood flood-opacity="0" result="BackgroundImageFix"/>
<feBlend mode="normal" in="SourceGraphic" in2="BackgroundImageFix" result="shape"/>
<feGaussianBlur stdDeviation="1.008" result="effect1_foregroundBlur_101_25906"/>
</filter>
</defs>
</svg>
